<svg width="490" height="630" viewBox="0 0 490 630" fill="none" xmlns="http://www.w3.org/2000/svg">
<g filter="url(#filter0_f_1021_55)">
<path d="M281.19 307.398H34.1107C26.4075 307.398 20.1628 313.994 20.1628 322.13V574.661C20.1628 582.797 26.4075 589.393 34.1107 589.393H281.19C288.892 589.393 295.137 582.797 295.137 574.661V322.13C295.137 313.994 288.892 307.398 281.19 307.398Z" fill="white"/>
<path d="M20 359.844H295.151" stroke="#EBEEF2"/>
<path d="M58.8801 422.649C69.3413 422.649 77.8217 414.17 77.8217 403.709C77.8217 393.247 69.3413 384.767 58.8801 384.767C48.419 384.767 39.9386 393.247 39.9386 403.709C39.9386 414.17 48.419 422.649 58.8801 422.649Z" fill="#EFF1F5"/>
<path d="M273.219 392.742H211.409C209.207 392.742 207.422 394.526 207.422 396.729C207.422 398.932 209.207 400.717 211.409 400.717H273.219C275.421 400.717 277.207 398.932 277.207 396.729C277.207 394.526 275.421 392.742 273.219 392.742Z" fill="#D3D5DE"/>
<path d="M275.213 408.693H237.329C236.228 408.693 235.336 409.584 235.336 410.686C235.336 411.788 236.228 412.68 237.329 412.68H275.213C276.314 412.68 277.206 411.788 277.206 410.686C277.206 409.584 276.314 408.693 275.213 408.693Z" fill="#EFF1F5"/>
<path d="M58.8801 491.48C69.3413 491.48 77.8217 483 77.8217 472.538C77.8217 462.077 69.3413 453.596 58.8801 453.596C48.419 453.596 39.9386 462.077 39.9386 472.538C39.9386 483 48.419 491.48 58.8801 491.48Z" fill="#EFF1F5"/>
<path d="M273.219 461.571H211.409C209.207 461.571 207.422 463.356 207.422 465.559C207.422 467.762 209.207 469.546 211.409 469.546H273.219C275.421 469.546 277.207 467.762 277.207 465.559C277.207 463.356 275.421 461.571 273.219 461.571Z" fill="#D3D5DE"/>
<path d="M275.213 477.522H237.329C236.228 477.522 235.336 478.414 235.336 479.515C235.336 480.616 236.228 481.509 237.329 481.509H275.213C276.314 481.509 277.206 480.616 277.206 479.515C277.206 478.414 276.314 477.522 275.213 477.522Z" fill="#EFF1F5"/>
<path d="M58.8801 555.628C69.3413 555.628 77.8217 547.149 77.8217 536.687C77.8217 526.226 69.3413 517.745 58.8801 517.745C48.419 517.745 39.9386 526.226 39.9386 536.687C39.9386 547.149 48.419 555.628 58.8801 555.628Z" fill="#EFF1F5"/>
<path d="M273.219 525.721H211.409C209.207 525.721 207.422 527.507 207.422 529.709C207.422 531.911 209.207 533.697 211.409 533.697H273.219C275.421 533.697 277.207 531.911 277.207 529.709C277.207 527.507 275.421 525.721 273.219 525.721Z" fill="#D3D5DE"/>
<path d="M275.213 541.672H237.329C236.228 541.672 235.336 542.565 235.336 543.666C235.336 544.767 236.228 545.66 237.329 545.66H275.213C276.314 545.66 277.206 544.767 277.206 543.666C277.206 542.565 276.314 541.672 275.213 541.672Z" fill="#EFF1F5"/>
<path d="M452.515 39H31.485C27.3512 39 24 42.3566 24 46.4971V68.9883C24 73.1288 27.3512 76.4854 31.485 76.4854H452.515C456.648 76.4854 460 73.1288 460 68.9883V46.4971C460 42.3566 456.648 39 452.515 39V39Z" fill="white"/>
<path d="M443.159 48.3711H409.476C407.41 48.3711 405.734 50.0494 405.734 52.1196V61.4911C405.734 63.5613 407.41 65.2396 409.476 65.2396H443.159C445.225 65.2396 446.901 63.5613 446.901 61.4911V52.1196C446.901 50.0494 445.225 48.3711 443.159 48.3711V48.3711Z" fill="#5C60F5"/>
<path d="M370.18 55.8682H342.111C341.078 55.8682 340.24 56.7073 340.24 57.7424C340.24 58.7776 341.078 59.6167 342.111 59.6167H370.18C371.214 59.6167 372.051 58.7776 372.051 57.7424C372.051 56.7073 371.214 55.8682 370.18 55.8682Z" fill="#EFF1F5"/>
<path d="M321.528 55.8682H293.459C292.426 55.8682 291.588 56.7073 291.588 57.7424C291.588 58.7776 292.426 59.6167 293.459 59.6167H321.528C322.561 59.6167 323.399 58.7776 323.399 57.7424C323.399 56.7073 322.561 55.8682 321.528 55.8682Z" fill="#EFF1F5"/>
<path d="M272.876 55.8682H244.807C243.774 55.8682 242.936 56.7073 242.936 57.7424C242.936 58.7776 243.774 59.6167 244.807 59.6167H272.876C273.909 59.6167 274.747 58.7776 274.747 57.7424C274.747 56.7073 273.909 55.8682 272.876 55.8682Z" fill="#EFF1F5"/>
<path d="M440 160H231C227.134 160 224 163.134 224 167V243.694C224 247.56 227.134 250.694 231 250.694H440C443.866 250.694 447 247.56 447 243.694V167C447 163.134 443.866 160 440 160Z" fill="#F0F3FF"/>
<path d="M296.956 177.072H247.339C245.13 177.072 243.339 178.863 243.339 181.072V230.689C243.339 232.898 245.13 234.689 247.339 234.689H296.956C299.165 234.689 300.956 232.898 300.956 230.689V181.072C300.956 178.863 299.165 177.072 296.956 177.072Z" fill="#9AAEFF"/>
<path d="M416.591 188.808H323.762C321.7 188.808 320.028 190.48 320.028 192.542C320.028 194.605 321.7 196.277 323.762 196.277H416.591C418.653 196.277 420.325 194.605 420.325 192.542C420.325 190.48 418.653 188.808 416.591 188.808Z" fill="#D5DDFF"/>
<path d="M384.581 204.813H322.695C321.222 204.813 320.028 206.007 320.028 207.481C320.028 208.954 321.222 210.148 322.695 210.148H384.581C386.054 210.148 387.248 208.954 387.248 207.481C387.248 206.007 386.054 204.813 384.581 204.813Z" fill="#D4DDFF"/>
<path d="M342.968 220.818H321.628C320.745 220.818 320.028 221.535 320.028 222.419C320.028 223.302 320.745 224.019 321.628 224.019H342.968C343.852 224.019 344.569 223.302 344.569 222.419C344.569 221.535 343.852 220.818 342.968 220.818Z" fill="#D4DDFF"/>
<path d="M377.112 220.818H355.772C354.889 220.818 354.172 221.535 354.172 222.419C354.172 223.302 354.889 224.019 355.772 224.019H377.112C377.996 224.019 378.713 223.302 378.713 222.419C378.713 221.535 377.996 220.818 377.112 220.818Z" fill="#D4DDFF"/>
<path d="M411.256 220.818H389.916C389.032 220.818 388.316 221.535 388.316 222.419C388.316 223.302 389.032 224.019 389.916 224.019H411.256C412.14 224.019 412.857 223.302 412.857 222.419C412.857 221.535 412.14 220.818 411.256 220.818Z" fill="#D4DDFF"/>
<path d="M445 348H363C359.134 348 356 351.134 356 355V472C356 475.866 359.134 479 363 479H445C448.866 479 452 475.866 452 472V355C452 351.134 448.866 348 445 348Z" fill="#F0F3FF"/>
<path d="M431 368.904H376.182C374.525 368.904 373.182 370.247 373.182 371.904V405.382C373.182 407.039 374.525 408.382 376.182 408.382H431C432.657 408.382 434 407.039 434 405.382V371.904C434 370.247 432.657 368.904 431 368.904Z" fill="#A2B4FF"/>
<path d="M423.864 446.794H374.782C373.899 446.794 373.182 446.077 373.182 445.194C373.182 444.31 373.899 443.593 374.782 443.593H423.864C424.748 443.593 425.464 444.31 425.464 445.194C425.464 446.077 424.748 446.794 423.864 446.794Z" fill="#A1B4FF"/>
<path d="M394.5 458H374.5C373.672 458 373 457.328 373 456.5C373 455.672 373.672 455 374.5 455H394.5C395.328 455 396 455.672 396 456.5C396 457.328 395.328 458 394.5 458Z" fill="#A1B4FF"/>
<path d="M407.859 436.124H374.782C373.899 436.124 373.182 435.407 373.182 434.524C373.182 433.64 373.899 432.923 374.782 432.923H407.859C408.743 432.923 409.46 433.64 409.46 434.524C409.46 435.407 408.743 436.124 407.859 436.124Z" fill="#A1B4FF"/>
<path d="M417.462 424.388H374.782C373.899 424.388 373.182 423.671 373.182 422.788C373.182 421.904 373.899 421.188 374.782 421.188H417.462C418.346 421.188 419.062 421.904 419.062 422.788C419.062 423.671 418.346 424.388 417.462 424.388Z" fill="#A1B4FF"/>
<path d="M133 118H40C36.134 118 33 121.134 33 125V242C33 245.866 36.134 249 40 249H133C136.866 249 140 245.866 140 242V125C140 121.134 136.866 118 133 118Z" fill="#F8F8F8"/>
<path d="M103.026 191.187H53.9445C53.0606 191.187 52.344 191.904 52.344 192.787C52.344 193.671 53.0606 194.388 53.9445 194.388H103.026C103.91 194.388 104.626 193.671 104.626 192.787C104.626 191.904 103.91 191.187 103.026 191.187Z" fill="#DFDFDF"/>
<path d="M87.0211 201.856H53.9445C53.0606 201.856 52.344 202.573 52.344 203.456C52.344 204.34 53.0606 205.057 53.9445 205.057H87.0211C87.905 205.057 88.6216 204.34 88.6216 203.456C88.6216 202.573 87.905 201.856 87.0211 201.856Z" fill="#DFDFDF"/>
<path d="M74.2172 213.593H53.9445C53.0606 213.593 52.344 214.31 52.344 215.194C52.344 216.077 53.0606 216.794 53.9445 216.794H74.2172C75.1011 216.794 75.8177 216.077 75.8177 215.194C75.8177 214.31 75.1011 213.593 74.2172 213.593Z" fill="#DFDFDF"/>
<path d="M95.5 224H53.5C52.6716 224 52 224.672 52 225.5C52 226.328 52.6716 227 53.5 227H95.5C96.3284 227 97 226.328 97 225.5C97 224.672 96.3284 224 95.5 224Z" fill="#DFDFDF"/>
<path d="M79.2196 138.904H55.344C53.6871 138.904 52.344 140.247 52.344 141.904V175.382C52.344 177.039 53.6871 178.382 55.344 178.382H79.2196C80.8765 178.382 82.2196 177.039 82.2196 175.382V141.904C82.2196 140.247 80.8765 138.904 79.2196 138.904Z" fill="#D5D5D5"/>
<path d="M118.699 138.904H94.823C93.1661 138.904 91.823 140.247 91.823 141.904V175.382C91.823 177.039 93.1661 178.382 94.823 178.382H118.699C120.355 178.382 121.699 177.039 121.699 175.382V141.904C121.699 140.247 120.355 138.904 118.699 138.904Z" fill="#E3E3E3"/>
</g>
<mask id="mask0_1021_55" style="mask-type:alpha" maskUnits="userSpaceOnUse" x="131" y="196" width="222" height="222">
<circle cx="242" cy="307" r="111" fill="#C4C4C4"/>
</mask>
<g mask="url(#mask0_1021_55)">
<g filter="url(#filter1_d_1021_55)">
<rect x="131" y="196" width="222" height="222" fill="url(#paint0_linear_1021_55)"/>
</g>
<g filter="url(#filter2_d_1021_55)">
<path d="M18.5124 320.529C-30.9819 315.938 -82.8388 296.424 -91.5878 270.598V187.379L530.874 194.744C530.874 194.744 479.119 345.581 423.251 352.235C367.384 358.89 365.607 333.203 320.421 335.866C280.695 338.208 260.628 350.573 227.865 348.844C195.103 347.114 186.612 326.243 130.067 317.277C73.5221 308.31 80.3804 326.268 18.5124 320.529Z" fill="url(#paint1_linear_1021_55)"/>
</g>
<g filter="url(#filter3_d_1021_55)">
<path d="M-9.07595 298.899C-58.5703 295.232 -110.427 279.646 -119.176 259.019V192.552L503.286 198.434C503.286 198.434 451.53 318.908 395.663 324.223C339.796 329.537 338.019 309.022 292.833 311.149C253.106 313.019 233.04 322.895 200.277 321.514C167.514 320.133 159.024 303.463 102.479 296.301C45.9337 289.14 52.792 303.483 -9.07595 298.899Z" fill="url(#paint2_linear_1021_55)"/>
</g>
</g>
<defs>
<filter id="filter0_f_1021_55" x="-7" y="-7" width="504" height="644" filterUnits="userSpaceOnUse" color-interpolation-filters="sRGB">
<feFlood flood-opacity="0" result="BackgroundImageFix"/>
<feBlend mode="normal" in="SourceGraphic" in2="BackgroundImageFix" result="shape"/>
<feGaussianBlur stdDeviation="3.5" result="effect1_foregroundBlur_1021_55"/>
</filter>
<filter id="filter1_d_1021_55" x="121" y="196" width="242" height="242" filterUnits="userSpaceOnUse" color-interpolation-filters="sRGB">
<feFlood flood-opacity="0" result="BackgroundImageFix"/>
<feColorMatrix in="SourceAlpha" type="matrix" values="0 0 0 0 0 0 0 0 0 0 0 0 0 0 0 0 0 0 127 0" result="hardAlpha"/>
<feOffset dy="10"/>
<feGaussianBlur stdDeviation="5"/>
<feColorMatrix type="matrix" values="0 0 0 0 0 0 0 0 0 0 0 0 0 0 0 0 0 0 0.15 0"/>
<feBlend mode="normal" in2="BackgroundImageFix" result="effect1_dropShadow_1021_55"/>
<feBlend mode="normal" in="SourceGraphic" in2="effect1_dropShadow_1021_55" result="shape"/>
</filter>
<filter id="filter2_d_1021_55" x="-116.588" y="172.379" width="672.462" height="215.961" filterUnits="userSpaceOnUse" color-interpolation-filters="sRGB">
<feFlood flood-opacity="0" result="BackgroundImageFix"/>
<feColorMatrix in="SourceAlpha" type="matrix" values="0 0 0 0 0 0 0 0 0 0 0 0 0 0 0 0 0 0 127 0" result="hardAlpha"/>
<feOffset dy="10"/>
<feGaussianBlur stdDeviation="12.5"/>
<feColorMatrix type="matrix" values="0 0 0 0 0 0 0 0 0 0 0 0 0 0 0 0 0 0 0.15 0"/>
<feBlend mode="normal" in2="BackgroundImageFix" result="effect1_dropShadow_1021_55"/>
<feBlend mode="normal" in="SourceGraphic" in2="effect1_dropShadow_1021_55" result="shape"/>
</filter>
<filter id="filter3_d_1021_55" x="-144.176" y="177.552" width="672.462" height="182.554" filterUnits="userSpaceOnUse" color-interpolation-filters="sRGB">
<feFlood flood-opacity="0" result="BackgroundImageFix"/>
<feColorMatrix in="SourceAlpha" type="matrix" values="0 0 0 0 0 0 0 0 0 0 0 0 0 0 0 0 0 0 127 0" result="hardAlpha"/>
<feOffset dy="10"/>
<feGaussianBlur stdDeviation="12.5"/>
<feColorMatrix type="matrix" values="0 0 0 0 0 0 0 0 0 0 0 0 0 0 0 0 0 0 0.15 0"/>
<feBlend mode="normal" in2="BackgroundImageFix" result="effect1_dropShadow_1021_55"/>
<feBlend mode="normal" in="SourceGraphic" in2="effect1_dropShadow_1021_55" result="shape"/>
</filter>
<linearGradient id="paint0_linear_1021_55" x1="242" y1="196" x2="242" y2="418" gradientUnits="userSpaceOnUse">
<stop stop-color="#00CCD4"/>
<stop offset="1" stop-color="#687BDC"/>
</linearGradient>
<linearGradient id="paint1_linear_1021_55" x1="270.791" y1="187.379" x2="271.739" y2="372.811" gradientUnits="userSpaceOnUse">
<stop stop-color="#00FFC2"/>
<stop offset="0.479167" stop-color="#004DFF" stop-opacity="0.8"/>
<stop offset="1" stop-color="#750787" stop-opacity="0.13"/>
</linearGradient>
<linearGradient id="paint2_linear_1021_55" x1="243.202" y1="192.552" x2="243.807" y2="340.658" gradientUnits="userSpaceOnUse">
<stop stop-color="#3179E6"/>
<stop offset="1" stop-color="#750787" stop-opacity="0.13"/>
<stop offset="1" stop-color="#750787" stop-opacity="0.13"/>
<stop offset="1" stop-color="#750787"/>
</linearGradient>
</defs>
</svg>
