<svg width="204" height="135" viewBox="0 0 204 135" fill="none" xmlns="http://www.w3.org/2000/svg">
<g clip-path="url(#clip0_1001_2)">
<path d="M203.471 44.4279C203.441 50.4579 201.831 56.3179 198.941 61.5179C197.261 64.5579 195.141 67.3879 192.631 69.8879L148.901 113.618C158.541 103.568 164.341 91.1779 166.301 78.3079L183.741 60.8679C184.661 59.9479 185.511 58.9579 186.261 57.9179C189.081 54.0379 190.731 49.3779 190.801 44.5279C190.851 40.7479 190.011 37.0979 188.361 33.8279C187.821 32.7579 187.201 31.7279 186.491 30.7379C185.811 29.7979 185.061 28.8979 184.231 28.0479C184.111 27.9079 183.991 27.7879 183.851 27.6479C179.391 23.2779 173.591 21.1279 167.771 21.1179C162.231 21.1179 156.691 23.0679 152.251 26.8879C151.811 27.2779 151.381 27.6679 150.971 28.0879L143.211 35.8479L69.2207 109.828L61.5807 117.468C61.1207 117.928 60.6507 118.378 60.1707 118.798C53.2607 125.008 44.4407 128.158 35.6407 128.158C26.3707 128.158 17.1307 124.658 10.2007 117.578C9.7707 117.138 9.3507 116.688 8.9507 116.228C8.1707 115.348 7.4407 114.428 6.7507 113.478C6.0507 112.508 5.3907 111.498 4.8107 110.468C1.6307 105.008 -0.0392979 98.7779 0.000702075 92.2979C0.0507021 83.6079 3.3607 75.2779 9.0407 68.7579C9.6107 68.0979 10.2107 67.4479 10.8307 66.8279L55.5207 22.1479C45.3107 32.3579 39.1907 45.1279 37.1707 58.4079L19.7307 75.8479C18.8907 76.6879 18.1107 77.5779 17.4107 78.5179C14.4607 82.4679 12.7307 87.2179 12.6607 92.1979C12.6207 95.2679 13.1707 98.2579 14.2607 101.018C14.7107 102.168 15.2607 103.278 15.8907 104.338C16.4907 105.348 17.1807 106.318 17.9407 107.238C18.4607 107.878 19.0207 108.488 19.6107 109.068C24.0707 113.448 29.8807 115.598 35.7007 115.598C41.5207 115.598 46.7807 113.658 51.2107 109.828H51.2207C51.6707 109.448 52.0807 109.058 52.5107 108.638L60.2707 100.878L134.251 26.8979L141.891 19.2579C142.351 18.7979 142.811 18.3479 143.291 17.9179C150.211 11.7079 159.031 8.56787 167.821 8.56787C177.071 8.56787 186.281 12.0479 193.201 19.0779L193.261 19.1379C194.061 19.9579 194.821 20.8179 195.531 21.6979C196.281 22.6179 196.981 23.5779 197.621 24.5579C201.471 30.4079 203.511 37.2679 203.471 44.4279Z" fill="#EA3C43"/>
<path d="M134.001 12.0278C131.061 9.74724 133.811 12.2178 134.001 12.0278C107.111 38.9178 86.8907 59.1387 60.0007 86.0287C51.5307 74.9287 46.0807 74.8284 46.3607 68.2384C47.1607 49.3784 65.0007 30.7584 64.8907 30.6884C64.8707 30.6884 64.4707 31.0984 64.4707 31.0984C60.5007 80.0284 56.7407 83.1233 60.0007 86.0287C57.2407 83.5689 63.0707 73.9478 63.0007 74.0278C62.8307 74.1878 54.097 111.894 61.677 49.5284C45.247 66.8284 48.4007 66.2187 60.0007 86.0287L45.0007 101.029C45.1607 100.879 42.4407 97.8689 45.0007 101.029C36.0207 87.3087 34.7707 74.0784 37.1707 58.4084C39.1907 45.1284 45.3107 32.3584 55.5207 22.1484C55.6607 22.0084 55.8007 21.8684 55.9407 21.7384C78.2007 -0.151566 108.821 -4.49215 134.001 12.0278Z" fill="#FF7B78"/>
<path d="M159.002 35.0276C161.282 37.9676 158.812 35.2176 159.002 35.0276C132.112 61.9176 111.891 82.1376 85.0007 109.028C96.1007 117.498 96.201 122.948 102.791 122.668C121.651 121.868 140.271 104.028 140.341 104.138C140.341 104.158 139.931 104.558 139.931 104.558C91.001 108.528 87.9061 112.288 85.0007 109.028C87.4605 111.788 97.0816 105.958 97.0016 106.028C96.8416 106.198 59.1352 114.931 121.501 107.351C104.201 123.781 104.811 120.628 85.0007 109.028L70.0007 124.028C70.1507 123.868 73.1605 126.588 70.0007 124.028C83.7207 133.008 96.951 134.258 112.621 131.858C125.901 129.838 138.671 123.718 148.881 113.508C149.021 113.368 149.161 113.228 149.291 113.088C171.181 90.8276 175.522 60.2076 159.002 35.0276Z" fill="#FF7B78"/>
</g>
<defs>
<clipPath id="clip0_1001_2">
<rect width="203.47" height="134.66" fill="white"/>
</clipPath>
</defs>
</svg>
