<svg width="630" height="405" viewBox="0 0 630 405" fill="none" xmlns="http://www.w3.org/2000/svg">
<path d="M629.003 131.009C628.91 149.629 623.933 167.723 614.999 183.78C609.806 193.167 603.252 201.905 595.493 209.624L460.307 344.654C490.108 313.621 508.038 275.364 514.097 235.624L568.01 181.773C570.854 178.932 573.482 175.875 575.801 172.664C584.518 160.683 589.619 146.294 589.835 131.318C589.99 119.646 587.393 108.376 582.293 98.2785C580.623 94.9746 578.707 91.7941 576.512 88.7372C574.41 85.8347 572.091 83.0557 569.525 80.431C569.154 79.9988 568.783 79.6282 568.35 79.1959C554.563 65.7023 536.633 59.0635 518.641 59.0326C501.515 59.0326 484.389 65.0538 470.663 76.8492C469.303 78.0534 467.974 79.2577 466.706 80.5546L442.717 104.516L213.987 332.951L190.369 356.542C188.947 357.962 187.494 359.352 186.01 360.649C164.648 379.824 137.383 389.55 110.179 389.55C81.5216 389.55 52.9573 378.743 31.5341 356.882C30.2048 355.523 28.9065 354.133 27.6699 352.713C25.2587 349.996 23.002 347.155 20.8689 344.222C18.705 341.226 16.6647 338.108 14.8717 334.927C5.0411 318.068 -0.121484 298.831 0.00217037 278.822C0.156739 251.989 10.3892 226.268 27.9481 206.135C29.7102 204.097 31.5651 202.09 33.4817 200.176L171.635 62.213C140.072 93.7395 121.153 133.171 114.908 174.177L60.9949 228.028C58.3981 230.621 55.9869 233.37 53.8229 236.272C44.7034 248.469 39.3553 263.136 39.1389 278.513C39.0153 287.993 40.7155 297.225 44.0851 305.748C45.4762 309.299 47.1765 312.726 49.124 315.999C50.9789 319.118 53.1119 322.113 55.4613 324.954C57.0689 326.93 58.8 328.813 60.6239 330.604C74.4114 344.129 92.3723 350.768 110.364 350.768C128.356 350.768 144.616 344.777 158.311 332.951H158.342C159.733 331.778 161.001 330.573 162.33 329.277L186.319 305.315L415.019 76.8801L438.637 53.2893C440.059 51.8689 441.481 50.4794 442.964 49.1517C464.357 29.9764 491.623 20.2808 518.796 20.2808C547.391 20.2808 575.862 31.0263 597.255 52.7335L597.44 52.9188C599.913 55.4508 602.263 58.1063 604.458 60.8235C606.776 63.6643 608.94 66.6286 610.919 69.6546C622.82 87.7182 629.127 108.901 629.003 131.009Z" fill="#BAD4FF"/>
<path d="M414.246 30.964C405.157 23.9219 413.658 31.5506 414.246 30.964C331.119 113.995 268.611 176.433 185.484 259.463C159.3 225.189 142.452 224.879 143.318 204.531C145.791 146.295 200.941 88.8002 200.601 88.5841C200.539 88.5841 199.303 89.85 199.303 89.85C187.03 240.936 175.406 250.492 185.484 259.463C176.952 251.868 194.975 222.16 194.758 222.407C194.233 222.901 167.234 339.331 190.666 146.758C139.875 200.177 149.624 198.294 185.484 259.463L139.114 305.78C139.608 305.317 131.2 296.024 139.114 305.78C111.353 263.416 107.489 222.564 114.908 174.178C121.153 133.172 140.072 93.7407 171.635 62.2143C172.068 61.782 172.501 61.3497 172.933 60.9483C241.747 -6.6436 336.405 -20.0464 414.246 30.964Z" fill="white"/>
<path d="M491.532 101.983C498.583 111.061 490.945 102.57 491.532 101.983C408.406 185.014 345.895 247.449 262.769 330.48C297.083 356.633 297.393 373.462 317.765 372.597C376.068 370.127 433.629 315.041 433.846 315.38C433.846 315.442 432.578 316.677 432.578 316.677C281.318 328.936 271.75 340.546 262.769 330.48C270.373 339.002 300.115 321 299.868 321.216C299.373 321.741 182.809 348.709 375.604 325.304C322.124 376.036 324.009 366.298 262.769 330.48L216.398 376.797C216.862 376.303 226.166 384.702 216.398 376.797C258.812 404.525 299.711 408.385 348.153 400.974C389.206 394.737 428.683 375.84 460.246 344.313C460.679 343.881 461.112 343.449 461.513 343.016C529.184 274.282 542.602 179.734 491.532 101.983Z" fill="white"/>
</svg>
