<svg width="475" height="314" viewBox="0 0 475 314" fill="none" xmlns="http://www.w3.org/2000/svg">
<g clip-path="url(#clip0_1022_56)">
<path d="M475.002 103.598C474.932 117.659 471.173 131.323 464.426 143.448C460.504 150.537 455.555 157.136 449.696 162.965L347.608 264.935C370.113 241.5 383.653 212.609 388.228 182.599L428.942 141.933C431.09 139.787 433.074 137.479 434.825 135.054C441.408 126.006 445.26 115.14 445.424 103.831C445.54 95.0168 443.579 86.5057 439.727 78.8807C438.467 76.3857 437.019 73.9839 435.362 71.6755C433.774 69.4836 432.024 67.385 430.086 65.4029C429.806 65.0765 429.526 64.7967 429.199 64.4702C418.787 54.2803 405.247 49.2669 391.66 49.2436C378.727 49.2436 365.794 53.7906 355.429 62.698C354.402 63.6074 353.398 64.5169 352.441 65.4962L334.325 83.591L161.595 256.097L143.76 273.912C142.686 274.985 141.589 276.034 140.468 277.014C124.337 291.494 103.747 298.839 83.2031 298.839C61.5623 298.839 39.9916 290.678 23.8135 274.169C22.8097 273.143 21.8292 272.094 20.8954 271.021C19.0745 268.969 17.3703 266.824 15.7595 264.608C14.1253 262.347 12.5846 259.992 11.2306 257.59C3.80687 244.858 -0.0917409 230.331 0.00163899 215.221C0.118364 194.958 7.84555 175.534 21.1055 160.33C22.4361 158.791 23.8368 157.276 25.2842 155.83L129.613 51.6453C105.778 75.453 91.4906 105.23 86.7749 136.196L46.0613 176.863C44.1003 178.822 42.2794 180.897 40.6452 183.089C33.7585 192.299 29.7198 203.375 29.5564 214.988C29.463 222.146 30.747 229.119 33.2916 235.554C34.3421 238.236 35.6261 240.824 37.0968 243.296C38.4975 245.651 40.1083 247.913 41.8825 250.058C43.0964 251.55 44.4038 252.973 45.7811 254.325C56.193 264.539 69.7564 269.552 83.3432 269.552C96.9299 269.552 109.209 265.028 119.551 256.097H119.575C120.625 255.211 121.582 254.302 122.586 253.323L140.702 235.228L313.408 62.7214L331.243 44.9064C332.317 43.8338 333.391 42.7845 334.512 41.7818C350.666 27.3013 371.257 19.9795 391.777 19.9795C413.371 19.9795 434.872 28.0941 451.026 44.4867L451.166 44.6266C453.034 46.5387 454.808 48.544 456.466 50.596C458.217 52.7413 459.851 54.9798 461.345 57.265C470.333 70.906 475.095 86.9021 475.002 103.598Z" fill="#E4E6FF"/>
<path d="M312.824 28.047C305.961 22.7291 312.381 28.49 312.824 28.047C250.05 90.749 202.846 137.9 140.071 200.602C120.298 174.719 107.575 174.485 108.229 159.119C110.096 115.141 151.744 71.7229 151.487 71.5597C151.44 71.5597 150.507 72.5157 150.507 72.5157C141.239 186.611 132.461 193.827 140.071 200.602C133.628 194.866 147.238 172.432 147.075 172.618C146.678 172.992 126.289 260.915 143.985 115.491C105.629 155.831 112.991 154.409 140.071 200.602L105.054 235.579C105.427 235.229 99.0777 228.211 105.054 235.579C84.0902 203.587 81.1721 172.736 86.7749 136.197C91.4905 105.231 105.778 75.4538 129.613 51.6462C129.94 51.3197 130.267 50.9932 130.593 50.6901C182.559 -0.352955 254.042 -10.4743 312.824 28.047Z" fill="white"/>
<path d="M371.189 81.6783C376.513 88.5338 370.745 82.1213 371.189 81.6783C308.414 144.38 261.208 191.529 198.434 254.231C224.347 273.982 224.581 286.69 239.965 286.037C283.994 284.172 327.462 242.572 327.625 242.829C327.625 242.875 326.668 243.808 326.668 243.808C212.441 253.065 205.216 261.833 198.434 254.231C204.176 260.667 226.637 247.073 226.45 247.236C226.076 247.632 138.051 267.998 283.644 250.323C243.257 288.634 244.68 281.28 198.434 254.231L163.416 289.208C163.767 288.835 170.793 295.178 163.416 289.208C195.446 310.148 226.332 313.063 262.913 307.466C293.915 302.756 323.727 288.485 347.562 264.678C347.889 264.351 348.216 264.025 348.519 263.698C399.621 211.793 409.754 140.393 371.189 81.6783Z" fill="white"/>
</g>
<defs>
<clipPath id="clip0_1022_56">
<rect width="475" height="314" fill="white"/>
</clipPath>
</defs>
</svg>
